<?xml version="1.0" encoding="utf-8"?>
<!-- Generator: Adobe Illustrator 16.0.0, SVG Export Plug-In . SVG Version: 6.00 Build 0)  -->
<!DOCTYPE svg PUBLIC "-//W3C//DTD SVG 1.1//EN" "http://www.w3.org/Graphics/SVG/1.1/DTD/svg11.dtd">
<svg version="1.1" id="图层_1" xmlns="http://www.w3.org/2000/svg" xmlns:xlink="http://www.w3.org/1999/xlink" x="0px" y="0px"
	 width="453px" height="118.592px" viewBox="0 0 453 118.592" enable-background="new 0 0 453 118.592" xml:space="preserve">
<polygon fill-rule="evenodd" clip-rule="evenodd" fill="#71C7D5" stroke="#71C7D5" stroke-miterlimit="10" points="0,115.796 
	58.5,2.796 102.5,2.796 117.5,13.296 117.5,115.796 85,115.796 84.542,93.796 58.75,93.796 72,66.796 85,66.296 85,28.796 
	38.5,115.796 "/>
<polygon fill-rule="evenodd" clip-rule="evenodd" fill="#71C7D5" stroke="#71C7D5" stroke-miterlimit="10" points="235,3.963 
	235,114.63 265,114.63 265,16.296 256,3.963 "/>
<polygon fill-rule="evenodd" clip-rule="evenodd" fill="#71C7D5" stroke="#71C7D5" stroke-miterlimit="10" points="377.667,3.713 
	437,3.713 450.333,18.213 450.333,32.879 410.667,32.879 410.667,48.879 450.333,48.879 450.333,67.879 409.667,67.879 
	409.333,84.879 445,84.879 453,92.879 453,114.879 377.667,114.879 "/>
<path fill-rule="evenodd" clip-rule="evenodd" fill="#71C7D5" stroke="#71C7D5" stroke-miterlimit="10" d="M332.689,2.629
	c22,4,28.333,26,28.333,26v58c-6.667,29.333-29,29.333-29,29.333h-45V2.629H332.689z M317.171,34.463v51.333H330V34.463H317.171z"/>
<path fill-rule="evenodd" clip-rule="evenodd" fill="#71C7D5" stroke="#71C7D5" stroke-miterlimit="10" d="M219.613,29.778v58
	c-40.333,69.333-77.333,0-77.333,0v-58C183.946-37.222,219.613,29.778,219.613,29.778z M174.333,34.796v51.333h13.227V34.796
	H174.333z"/>
</svg>
